<svg xmlns="http://www.w3.org/2000/svg" width="200" height="27.148" viewBox="0 0 200 27.148"><path fill="#5EB130" d="M20.057 7.114v3.534l3.992-3.534"/><path fill="#0088C9" d="M16.64 7.11H9.807c-4.66 0-9.235 3.535-9.235 9.56 0 5.755 4.42 9.846 9.764 9.846 5.824 0 9.72-4.652 9.72-10.007v-5.616H16.64v5.62c0 3.033-2.203 6.742-6.3 6.742-3.467 0-6.3-2.95-6.31-6.584 0-2.62 1.825-6.342 6.63-6.342h5.765l3.632-3.22V1H16.64v6.11zM34.434 6.44c-3.17 0-6.145 1.786-7.1 3.565v-2.89H24.05V26.05h3.642V14.32c0-3.353 3.637-5.028 5.936-5.028 3.952 0 4.76 2.614 4.76 5.707v11.05h3.484V14.604c0-6.577-3.662-8.163-7.438-8.163zM71.24 23.327c-1.678 0-2.158-1.327-2.158-2.687V10.215h5.785V7.11h-5.785V1h-3.44v20.342c0 1.928.94 5.173 5.107 5.173 1.56 0 3.242-.307 4.32-.796l-.97-3.066c-1.288.513-2.213.673-2.86.673z"/><path fill="#0088C9" d="M71.24 23.327c-1.678 0-2.158-1.327-2.158-2.687V10.215h5.785V7.11h-5.785V1h-3.44v20.342c0 1.928.94 5.173 5.107 5.173 1.56 0 3.242-.307 4.32-.796l-.97-3.066c-1.288.513-2.213.673-2.86.673zM85.576 6.726h-.012c-3.935 0-7.56 2.11-7.56 2.11l1.467 2.518S81.938 9.73 85.55 9.73c5.06 0 5.5 2.314 5.514 3.397v.29s-3.847.33-6.126.544c-3.26.302-5.352 1.294-6.625 2.53-1.273 1.228-1.736 2.705-1.736 3.975v.044c0 3.97 3.83 6.004 8.093 6.004 3.333 0 6.51-1.69 6.51-1.69v1.236h3.233V12.854c0-2.77-2.326-6.128-8.834-6.128zm5.51 14.424c-1.173 1.623-3.887 2.493-6.607 2.493-1.294 0-4.34-.512-4.34-3.57 0-2.28 2.75-3.208 5.024-3.408 1.6-.14 5.92-.502 5.92-.502v4.987zM62.29 26.06V12.853c0-3.247-2.85-6.128-8.846-6.128-3.81 0-7.558 2.11-7.558 2.11l1.47 2.518S49.82 9.73 53.43 9.73c5.056 0 5.506 2.314 5.51 3.397v.29s-3.843.34-6.118.544c-3.652.33-8.36 2.006-8.36 6.55 0 3.954 3.827 6.004 8.092 6.004 3.328 0 6.504-1.69 6.504-1.69v1.236h3.235zm-9.928-2.417c-1.297 0-4.336-.512-4.336-3.57 0-2.28 2.74-3.208 5.02-3.408 1.602-.14 5.918-.502 5.918-.502l.002 4.987c-1.166 1.622-3.887 2.493-6.604 2.493z"/><path fill="#5EB130" d="M104.748 23.327c-1.678 0-2.16-1.327-2.16-2.687V10.215h5.786V7.11h-5.785V1h-3.44v20.342c0 1.928.94 5.173 5.106 5.173 1.562 0 3.243-.307 4.32-.796l-.97-3.066c-1.287.513-2.212.673-2.858.673zM181.462 1h3.44v25.02h-3.44zM122.3 9.84c-.597-.04-1.114 0-1.87 0-2.223 0-5.405 1.43-5.405 4.73v11.507h-3.418V7.104h3.18v3.08c.794-2.384 4.015-3.482 6.122-3.482h1.39V9.84zM140.42 12.848c0-3.247-2.848-6.128-8.844-6.128-3.81 0-7.56 2.11-7.56 2.11l1.473 2.518s2.462-1.624 6.07-1.624c5.057 0 5.505 2.313 5.51 3.396v.288l-6.117.545c-3.652.33-8.362 2.005-8.362 6.545 0 3.954 3.83 6.005 8.094 6.005 3.327 0 6.503-1.69 6.503-1.69v1.237h3.235V12.848zm-9.926 10.785c-1.297 0-4.337-.51-4.337-3.568 0-2.28 2.742-3.206 5.02-3.405 1.6-.14 5.918-.502 5.918-.502l.003 4.983c-1.167 1.624-3.888 2.493-6.604 2.493zM148.86 26.043L141.216 7.1h3.742l5.965 15.987 6.16-15.986h3.75l-7.837 18.943h-4.136zM160.76 16.61c0-5.707 3.396-9.86 8.986-9.86 6.483 0 9.856 4.332 8.91 11.2h-14.46c0 3.416 2.464 5.666 6.386 5.666 1.125 0 2.717.253 5.98-1.106l1.046 2.447c-1.202.737-3.922 1.553-7.338 1.553-5.2 0-9.51-3.728-9.51-9.9zm3.55-1.61h11.222c-.226-2.837-1.95-5.357-5.785-5.357-3.184 0-5.436 2.638-5.436 5.356z"/><g fill="#5EB130"><path d="M195.742 19.83c2.03 0 3.685-1.655 3.685-3.686 0-2.032-1.654-3.686-3.687-3.686-2.032 0-3.684 1.653-3.684 3.686 0 2.03 1.652 3.685 3.686 3.685zm-.002-1.72c-1.085 0-1.966-.882-1.966-1.967s.88-1.967 1.966-1.967c1.084 0 1.967.882 1.967 1.967s-.883 1.968-1.967 1.968zM195.726 26.18c2.317 0 3.7-1.32 3.7-3.535 0-.7 0-1.573-.508-2.582l-.05-.094-1.72.513.087.13c.326.5.465 1.53.465 1.856 0 1.804-1.285 2.02-2.014 2.02-.87 0-1.902-.26-1.902-2.017 0-.268.046-.942.487-1.822l.092-.156-1.7-.43-.046.08c-.357.606-.578 1.565-.578 2.502.002 2.212 1.38 3.533 3.688 3.533zM193.04 5.962c-.613.437-.938 1-.938 2.045 0 1.46.88 1.884.88 1.884h-.71v1.79h6.968V9.89h-3.965c-1.226 0-1.637-.702-1.637-1.416 0-1.404 1.37-1.396 1.695-1.396l3.907-.002V5.48h-3.945c-.472-.012-1.657.024-1.657-1.424 0-1.357 1.53-1.326 1.713-1.326h3.89V1h-4.458c-.21 0-.938.037-1.604.5-.715.497-1.077 1.183-1.077 2.237 0 1.107.463 1.844.94 2.225z"/></g><circle fill="#5EB130" cx="188.469" cy="24.563" r="1.48"/></svg>